<?xml version="1.0" encoding="UTF-8"?>
<svg id="Layer_3" data-name="Layer 3" xmlns="http://www.w3.org/2000/svg" viewBox="0 0 1000 1000">
  <defs>
    <style>
      .cls-1 {
        fill: #e7e4d5;
      }

      .cls-1, .cls-2, .cls-3, .cls-4 {
        stroke-width: 0px;
      }

      .cls-2 {
        fill: #1a1720;
      }

      .cls-5, .cls-6 {
        fill: none;
        stroke: #698066;
        stroke-miterlimit: 10;
        stroke-width: 14.8px;
      }

      .cls-3 {
        fill: #dcbd8d;
      }

      .cls-4 {
        fill: #698066;
      }

      .cls-6 {
        stroke-linecap: round;
      }
    </style>
  </defs>
  <g>
    <rect class="cls-4" width="1000" height="1000"/>
    <rect class="cls-2" width="1000" height="1000"/>
  </g>
  <g>
    <line class="cls-6" x1="700.49" y1="295.89" x2="700.49" y2="745"/>
    <g>
      <line class="cls-5" x1="650.7" y1="465.37" x2="650.7" y2="373.17"/>
      <path class="cls-5" d="M595.62,347.75v31.14c0,19.49,7.88,38.26,22.12,52.83l83.81,85.5"/>
      <circle class="cls-5" cx="595.62" cy="335.04" r="12.71"/>
      <circle class="cls-5" cx="650.7" cy="360.46" r="12.71"/>
    </g>
    <g>
      <line class="cls-5" x1="752.39" y1="478.08" x2="752.39" y2="570.27"/>
      <path class="cls-5" d="M701.55,622.13l83.81-85.5c14.24-14.57,22.12-33.34,22.12-52.83v-31.14"/>
      <circle class="cls-5" cx="807.47" cy="439.94" r="12.71"/>
      <circle class="cls-5" cx="752.39" cy="465.36" r="12.71"/>
    </g>
    <path class="cls-5" d="M777.81,280.42v9.96c0,19.49-7.88,38.26-22.12,52.83l-55.21,56.31"/>
    <circle class="cls-5" cx="777.81" cy="267.71" r="12.71"/>
    <circle class="cls-5" cx="700.49" cy="283.18" r="12.71"/>
    <g>
      <path class="cls-3" d="M494.69,678.88c0,30.1-15.25,48.51-45.74,55.22-.3.1-.84.15-1.63.15-1.97,0-3.68-.69-5.11-2.07-1.43-1.38-2.15-3.11-2.15-5.18,0-3.95,1.78-6.37,5.33-7.25,22.8-5.72,34.2-19.44,34.2-41.15,0-11.35-3.06-20.43-9.18-27.24-2.27-2.57-5.08-4.83-8.44-6.81-3.85-2.17-7.3-3.26-10.36-3.26-4.24,0-6.81,2.47-7.7,7.4-3.75,21.52-8.19,38.84-13.32,51.96-3.26,8.29-6.47,14.51-9.62,18.65-5.03,6.42-10.91,9.62-17.62,9.62-8.98,0-16.19-4.49-21.61-13.47-4.74-7.7-7.11-16.28-7.11-25.76,0-18.36,6.09-33.55,18.28-45.59,12.19-12.04,27.46-18.06,45.82-18.06,17.27,0,30.79,4.44,40.56,13.32,10.26,9.28,15.39,22.45,15.39,39.53ZM428.82,649.12c.1-.69.15-1.38.15-2.07,0-3.65-1.68-5.48-5.03-5.48-1.18,0-2.47.25-3.85.74-9.08,3.16-16.48,9.06-22.21,17.69-5.72,8.64-8.59,18.53-8.59,29.68,0,6.12,1.43,11.52,4.29,16.21,2.86,4.69,6.07,7.03,9.62,7.03,4.24,0,8.78-5.97,13.62-17.91,4.04-10.07,8.04-25.36,11.99-45.89Z"/>
      <path class="cls-3" d="M578.19,685.54c0,1.58-.54,2.91-1.63,4-1.09,1.09-2.42,1.63-4,1.63h-8.59c-3.06,0-4.59,1.04-4.59,3.11,0,1.09.49,2.17,1.48,3.26,2.47,2.67,6.71,6.42,12.73,11.25,1.38,1.09,2.07,2.57,2.07,4.44,0,1.58-.54,2.91-1.63,4-1.09,1.09-2.37,1.63-3.85,1.63s-4.29-1.92-8.44-5.77c-1.19-1.18-2.32-1.78-3.41-1.78-1.88,0-2.81,1.48-2.81,4.44v21.61c0,1.68-.59,3.11-1.78,4.29-1.18,1.18-2.62,1.78-4.29,1.78s-3.11-.59-4.29-1.78c-1.18-1.19-1.78-2.62-1.78-4.29v-19.69c0-2.86-.89-4.29-2.66-4.29-1.09,0-2.27.74-3.55,2.22-3.36,4.05-7.35,8.39-11.99,13.03-1.09,1.09-2.47,1.63-4.14,1.63-3.95,0-5.92-1.97-5.92-5.92,0-1.87.69-3.4,2.07-4.59,7.5-6.51,14.46-13.91,20.87-22.21.89-1.18,1.33-2.27,1.33-3.26,0-2.07-1.48-3.11-4.44-3.11h-11.69c-1.58,0-2.91-.54-4-1.63-1.09-1.09-1.63-2.42-1.63-4s.54-2.91,1.63-4c1.08-1.08,2.42-1.63,4-1.63h13.91c3.95,0,5.92-1.97,5.92-5.92v-.15c0-1.78.64-3.3,1.92-4.59,1.28-1.28,2.81-1.92,4.59-1.92s3.3.64,4.59,1.92c1.28,1.28,1.92,2.81,1.92,4.59v.15c0,3.95,1.97,5.92,5.92,5.92h10.51c1.58,0,2.91.54,4,1.63,1.08,1.09,1.63,2.42,1.63,4ZM643.91,664.81c0,1.68-.62,3.11-1.85,4.29-1.24,1.18-2.69,1.78-4.37,1.78-.79,0-1.53-.15-2.22-.44-16.09-6.61-29.46-13.32-40.12-20.13-1.09-.69-2.07-1.04-2.96-1.04-2.17,0-3.26,1.48-3.26,4.44v12.73c0,1.88-.67,3.46-2,4.74-1.33,1.28-2.89,1.92-4.66,1.92-1.88,0-3.48-.64-4.81-1.92-1.33-1.28-2-2.86-2-4.74v-12.43c0-2.96-1.09-4.44-3.26-4.44-.89,0-1.88.35-2.96,1.04-10.26,6.61-23.34,13.27-39.23,19.98-.69.29-1.48.44-2.37.44-1.68,0-3.11-.57-4.29-1.7-1.18-1.13-1.78-2.59-1.78-4.37,0-2.86,1.33-4.79,4-5.77,13.42-5.23,25.07-10.71,34.94-16.43,1.58-.89,2.37-1.87,2.37-2.96,0-1.68-1.33-2.52-4-2.52h-30.64c-1.58,0-2.94-.57-4.07-1.7-1.14-1.13-1.7-2.49-1.7-4.07s.57-2.93,1.7-4.07c1.13-1.13,2.49-1.7,4.07-1.7h41.3c3.95,0,5.92-1.97,5.92-5.92v-.59c0-1.87.67-3.45,2-4.74,1.33-1.28,2.93-1.92,4.81-1.92,1.78,0,3.33.64,4.66,1.92,1.33,1.28,2,2.86,2,4.74v.59c0,3.95,1.97,5.92,5.92,5.92h41.89c1.58,0,2.93.57,4.07,1.7,1.13,1.14,1.7,2.49,1.7,4.07s-.57,2.94-1.7,4.07c-1.14,1.14-2.49,1.7-4.07,1.7h-30.79c-2.57,0-3.85.84-3.85,2.52,0,1.09.74,2.07,2.22,2.96,9.57,5.53,21.41,10.96,35.53,16.28,2.57.99,3.85,2.91,3.85,5.77ZM650.87,726.1c0,1.68-.62,3.13-1.85,4.37-1.23,1.24-2.69,1.85-4.37,1.85s-3.11-.59-4.29-1.78c-4.74-4.64-9.33-9.67-13.77-15.1-1.18-1.48-2.37-2.22-3.55-2.22-1.78,0-2.66,1.48-2.66,4.44v19.69c0,1.68-.62,3.11-1.85,4.29-1.23,1.18-2.69,1.78-4.37,1.78s-3.11-.59-4.29-1.78-1.78-2.62-1.78-4.29v-19.84c0-2.96-.84-4.44-2.52-4.44-1.18,0-2.42.79-3.7,2.37-4.54,5.63-9.72,11.25-15.54,16.88-1.18,1.19-2.62,1.78-4.29,1.78-1.58,0-2.94-.59-4.07-1.78-1.13-1.18-1.7-2.61-1.7-4.29,0-1.78.69-3.26,2.07-4.44,9.77-8.49,17.91-17.17,24.43-26.06.79-1.08,1.19-2.12,1.19-3.11,0-2.17-1.53-3.26-4.59-3.26h-9.92c-1.58,0-2.91-.54-4-1.63-1.09-1.09-1.63-2.42-1.63-4s.54-2.91,1.63-4c1.08-1.08,2.42-1.63,4-1.63h12.14c3.95,0,5.92-1.97,5.92-5.92v-.15c0-1.78.67-3.3,2-4.59,1.33-1.28,2.89-1.92,4.66-1.92s3.31.64,4.59,1.92c1.28,1.28,1.92,2.81,1.92,4.59v.15c0,3.95,1.97,5.92,5.92,5.92h16.28c1.58,0,2.91.54,4,1.63,1.08,1.09,1.63,2.42,1.63,4s-.54,2.91-1.63,4c-1.09,1.09-2.42,1.63-4,1.63h-14.06c-2.96,0-4.44,1.04-4.44,3.11,0,1.09.44,2.17,1.33,3.26,6.22,7.9,13.92,15.84,23.09,23.83,1.38,1.18,2.07,2.76,2.07,4.74Z"/>
    </g>
    <g>
      <path class="cls-1" d="M280.93,558.28c0,11.35-5.68,17.02-17.02,17.02h-76.83c-1.97,0-3.68-.71-5.11-2.15-1.43-1.43-2.15-3.18-2.15-5.25s.71-3.82,2.15-5.25c1.43-1.43,3.13-2.15,5.11-2.15h66.32c4.93,0,8.14-.74,9.62-2.22s2.22-4.69,2.22-9.62v-38.79c0-4.93-.74-8.14-2.22-9.62s-4.69-2.22-9.62-2.22h-65.28c-2.07,0-3.83-.71-5.25-2.15-1.43-1.43-2.15-3.13-2.15-5.11s.74-3.7,2.22-5.18c1.48-1.48,3.21-2.22,5.18-2.22h75.79c11.35,0,17.02,5.68,17.02,17.02v57.88Z"/>
      <path class="cls-1" d="M441.25,524.53c0,2.17-.72,4-2.15,5.48-1.43,1.48-3.23,2.22-5.4,2.22h-109.1c-2.17,0-3.97-.74-5.4-2.22-1.43-1.48-2.15-3.31-2.15-5.48s.72-4,2.15-5.48c1.43-1.48,3.23-2.22,5.4-2.22h109.1c2.17,0,3.97.74,5.4,2.22,1.43,1.48,2.15,3.31,2.15,5.48Z"/>
      <path class="cls-1" d="M575.82,539.48c0,2.17-.74,4-2.22,5.48s-3.31,2.22-5.48,2.22c-1.09,0-2.22-.25-3.4-.74-.4-.2-7.95-3.6-22.65-10.22-9.47-4.34-17.72-7.7-24.72-10.07-1.09-.39-2.12-.59-3.11-.59-3.65,0-5.48,2.22-5.48,6.66v51.52c0,2.17-.76,4.02-2.29,5.55-1.53,1.53-3.33,2.29-5.4,2.29-2.17,0-4.05-.77-5.63-2.29-1.58-1.53-2.37-3.38-2.37-5.55v-109.1c0-2.17.79-4.02,2.37-5.55,1.58-1.53,3.45-2.29,5.63-2.29s3.87.76,5.4,2.29c1.53,1.53,2.29,3.38,2.29,5.55v23.09c0,6.81,3.21,11.35,9.62,13.62,20.03,7.21,37.7,14.26,53,21.17,2.96,1.28,4.44,3.6,4.44,6.96ZM566.2,495.52c0,1.58-.57,2.94-1.7,4.07s-2.49,1.7-4.07,1.7c-2.37,0-4.1-.89-5.18-2.66-2.86-4.54-5.92-8.44-9.18-11.7-1.09-1.08-1.63-2.42-1.63-4,0-3.95,1.92-5.92,5.77-5.92,1.68,0,3.16.74,4.44,2.22,4.15,4.64,7.6,8.98,10.36,13.03.79,1.18,1.19,2.27,1.19,3.26ZM584.26,487.08c0,1.58-.57,2.94-1.7,4.07-1.14,1.13-2.49,1.7-4.07,1.7-2.27,0-4-.89-5.18-2.66-3.26-4.83-6.32-8.83-9.18-11.99-1.09-1.19-1.63-2.42-1.63-3.7,0-3.95,1.97-5.92,5.92-5.92,1.48,0,2.91.69,4.29,2.07,3.45,3.46,6.96,7.85,10.51,13.18.69,1.38,1.04,2.47,1.04,3.26Z"/>
    </g>
  </g>
</svg>