<?xml version="1.0" encoding="UTF-8"?>
<svg id="Layer_3" data-name="Layer 3" xmlns="http://www.w3.org/2000/svg" viewBox="0 0 1000 1000">
  <defs>
    <style>
      .cls-1 {
        fill: #000;
      }

      .cls-1, .cls-2, .cls-3, .cls-4, .cls-5 {
        stroke-width: 0px;
      }

      .cls-2 {
        fill: #e51625;
      }

      .cls-3 {
        fill: #dcbd8d;
      }

      .cls-6 {
        fill: none;
        stroke: #dcbd8d;
        stroke-miterlimit: 10;
        stroke-width: 4.31px;
      }

      .cls-4 {
        fill: #1a1720;
      }

      .cls-5, .cls-7 {
        fill: #dcbd8d;
      }

      .cls-7 {
        font-family: FuturaPT-MediumObl, 'Futura PT';
        font-size: 107.65px;
        font-style: oblique;
        font-weight: 500;
      }
    </style>
  </defs>
  <g>
    <rect class="cls-1" width="1000" height="1000"/>
    <rect class="cls-4" width="1000" height="1000"/>
  </g>
  <g>
    <g>
      <path class="cls-2" d="M119.03,575.58c-4.5,8.12-8.86,14.93-12.13,22.22-2.39,5.33-4.04,11.21-4.8,17-1.17,9.03,3.36,16.03,11.95,18.79,13.18,4.23,26.63,4.98,39.91.38,14.79-5.13,23.5-18.5,21.77-32.76-1.12-9.15-6.44-12.42-14.89-8.87-3.41,1.44-6.58,3.45-10.04,5.3,0-7.19.15-14.06-.03-20.93-.6-23.63,2.18-46.8,10.16-69.12,10.63-29.73,33.13-45.95,62.76-53.48,14.29-3.64,28.81-5.84,43.65-4.91,1.32.08,2.64.14,3.95.34,23.71,3.62,32.97,20.25,22.82,42.07-2.78,5.97-7.26,11.35-11.79,16.22-2.22,2.39-6.3,4.06-9.64,4.24-10.55.57-18.92,4.1-23.88,14.85-2.58-4.43-2.36-8.48-.99-12.27,1.85-5.1,4.34-9.96,6.53-14.93,3.21-7.3,1.39-10.57-6.47-11.39-17.04-1.77-32.28,2.01-42.35,16.81-10.5,15.43-11.25,32.01-2.48,48.73,7.79,14.86,13.74,30.38,10.88,47.4-5.59,33.34-24.86,55.85-56.72,67.01-19.58,6.86-39.75,7.96-59.99,2.39-8.83-2.43-16.48-6.73-21.94-14.34-3.5-4.88-5.07-10.08-2.17-15.76,11.6-22.76,22.51-46.01,43.16-62.54.63-.51,1.21-1.08,2.78-2.48Z"/>
      <path class="cls-2" d="M823.55,449.89c0,5.25.25,10.23-.07,15.17-.31,4.72-.74,9.54-1.98,14.08-3.91,14.33-11.5,26.53-22.4,36.68-2.49,2.32-4.84,4.79-7.25,7.19.24.34.47.69.71,1.03,2.52-1.35,5.03-2.71,7.56-4.05,17.3-9.11,33.87-19.2,47.26-33.83,3.54-3.86,7.96-6.93,12.04-10.27,3.89-3.19,8.08-5.08,13.41-5.47,4.24-.31,8.6-2.38,12.39-4.57,7.45-4.31,14.68-4.25,22.18-.56,6.46,3.18,13.09,5.53,21.04,4.31-1.34,1.18-2.56,2.56-4.05,3.5-14.37,9.04-28.73,18.1-43.21,26.96-11.16,6.83-21.8,14.05-29.6,25-2.47,3.47-6.97,5.79-10.95,7.87-23.79,12.47-47.74,24.65-71.54,37.12-4.06,2.13-3.98,3.97.02,6.28,4.71,2.71,9.66,5.01,14.57,7.36,2.76,1.32,3.93,3.16,2,5.8-3.76,5.12-8.15,9.83-11.52,15.19-5.34,8.5-11.97,8.82-20.32,5.01-4.3-1.97-9.13-2.81-13.77-3.98-5.44-1.38-10.01.17-12.65,5.2-3.67,6.99-7.39,14.02-10.16,21.38-2.77,7.36-5.86,14.2-11.58,19.85-3.49,3.45-6.19,7.71-9.26,11.58-2.78,3.5-5.8,6.21-10.39,7.83-3.3,1.17-5.93,4.95-8.26,8.02-4.15,5.5-7.76,11.4-11.8,16.99-1.05,1.46-2.85,2.38-4.3,3.55-.36-.28-.71-.56-1.07-.85,4.71-9.17,9.73-18.21,14.02-27.57,2.63-5.75,4.14-12.01,6.15-18.05,1.18-3.55,2.52-7.05,3.44-10.67.71-2.79,1.92-6.11,1.04-8.51-1.42-3.83-.13-6.11,1.98-8.83,4.96-6.38,9.88-12.81,14.46-19.47,1.04-1.52,1.13-4.13.78-6.08-.68-3.86-2.47-7.56-2.92-11.43-1.18-10.02-2.86-11.87-13.62-12.39,3.62-5.38,6.73-10.58,10.51-15.25,1.07-1.32,4.26-1.83,6.17-1.39,10.88,2.53,20.76.62,29.39-6.35,2.97-2.4,5.44-5.65,7.5-8.91,4.75-7.51,9.14-15.25,13.64-22.92,3.66-6.24,7.64-12.34,10.77-18.83,3.25-6.73,7.79-11.54,14.67-14.63,6.15-2.76,11.98-6.25,17.84-9.63,7.7-4.44,13.93-10.45,18.9-17.86,2.53-3.78,5.58-7.2,8.27-10.62Z"/>
      <path class="cls-2" d="M487.07,609.67c3,4.85,1.29,8.56-.36,12.07-3.87,8.2-7.86,16.35-12.05,24.39-4.27,8.19-5.5,16.83-4.52,25.88.08.75.38,1.47.99,3.69,2.17-3.23,3.76-5.36,5.11-7.63,10.54-17.72,20.96-35.51,31.57-53.19,14.03-23.38,32.58-42.67,54.08-59.26,1.38-1.07,2.69-2.23,3.64-4.1-1.36.27-2.73.49-4.07.81-9.32,2.16-16.31-.49-20.06-9.15-2.42-5.6-3.11-11.98-4.32-18.06-.62-3.1-.67-6.3-1.05-10.09,1.02-.18,2.89-.62,4.78-.85,14.08-1.68,28.05-1.1,41.78,2.55,9.4,2.5,18.57,2.29,27.72-1.04,5.69-2.07,10.51-2.12,16.65,1.27,5.45,3.01,13.31,1.82,20.13,2.13,2.4.11,4.86-.83,7.29-1.29,7.55-1.44,14.56-.58,21.46,3.35,8.77,4.99,17.98,9.21,26.63,13.57-6.44,1.06-13.98,2.54-21.59,3.49-6.54.81-13.23.59-19.73,1.62-4.89.78-9.54,2.93-14.36,4.27-3.13.87-6.34,1.55-9.56,2-11.24,1.57-22.54,2.79-33.72,4.68-2.33.39-4.96,2.64-6.29,4.76-10.84,17.27-22.82,33.46-38.52,46.82-6.21,5.28-11.36,11.93-16.48,18.36-12.86,16.14-24.1,33.24-34.08,51.43-10.64,19.4-28.6,31.55-48.84,40.11-1.5.64-3.16.95-4.77,1.28-10.42,2.16-16.97-3.73-15.56-14.22,1.49-11.09,4.55-21.95,11.47-30.75,13.12-16.72,23.25-35.17,33.44-53.65.86-1.55,1.85-3.03,3.22-5.26Z"/>
      <path class="cls-2" d="M396.22,480.01c-11.65,26.28-22.96,52.69-43.21,73.89-1.36,1.43-2.7,2.98-3.59,4.71-.54,1.05-.21,2.56-.34,5.24-3.13,2.9-3.97,7.42-2.01,13.18,1.91,5.61-.97,9.58-6.8,11.03-2.4.59-4.9,1.33-7.31,1.19-7.92-.47-12.98,3.48-16.78,9.86-3.54,5.94-6.98,11.95-10.84,17.67-3.74,5.55-7.44,11.29-12.07,16.05-11.05,11.35-22.66,22.14-33.97,33.24-1.36,1.33-2.21,3.17-3.75,3.95,6.16-13.38,11.68-27.11,18.67-40.04,7-12.93,15.48-25.07,23.54-37.91-7.05-.33-14.24-.87-21.42-.81-1.47.01-3.13,2.12-4.34,3.56-14.14,16.98-27.87,34.33-42.45,50.92-7.04,8.01-15.66,14.63-23.59,21.86-.79.72-1.74,1.26-3.61,1.14,16.02-26.55,32.03-53.11,47.68-79.05-.98-2.71-1.82-5.62-3.08-8.33-.79-1.7-1.97-3.38-3.39-4.58-1.34-1.12-3.22-1.6-4.86-2.36.36-.89.72-1.77,1.08-2.66,7.16,1.03,12.25-.5,11.62-8.2.85-.32,1.2-.6,1.44-.52,10.69,3.54,16.56-1.48,22.1-10.35,7.53-12.06,17.8-21.48,30.36-29.15,7.59-4.64,15.65-8.76,22.98-13.92,1.12-.79,2.49-1.23,4.6-2.23-2.95,5.65-6.5,10.16-7.74,15.23-3.91,15.99-15.15,26.68-25.84,37.87-1.21,1.27-2.4,2.55-3.61,3.82.15.46.3.91.45,1.37,4.44-.52,8.92-1.71,13.31-1.42,7.77.51,11.53-3.53,15.31-9.65,11.08-17.95,22.6-35.65,34.5-53.07,6.34-9.27,15.4-15.14,26.77-17.29,3.44-.65,6.62-2.7,10.19-4.23Z"/>
      <path class="cls-2" d="M531.27,483.79c-4.64,10.13-10.18,19.96-13.78,30.45-15.15,44.13-43.64,80.86-66.45,120.72-5.52,9.64-13.9,16.9-24.05,21.47-4.51,2.03-9.77,2.59-14.77,3.26-3.52.47-4.77-1.65-3.53-5.02.06-.15.06-.34.15-.47,6.06-8.85,5.5-17.9,2.07-27.71-1.61-4.6-.58-10.12-.72-15.23-.05-1.91,0-3.83,0-4.92-5.75,5.1-11.63,10.27-17.42,15.53-.68.61-1.25,1.74-1.26,2.63-.08,6.75-5.03,9.59-9.6,13.25-7.59,6.08-14.6,12.88-21.71,19.54-1.88,1.76-3.21,4.08-4.8,6.14-.46-.41-.92-.82-1.38-1.23,1.48-2.69,3.01-5.36,4.44-8.07,10.61-20.14,20.64-40.61,31.99-60.33,7.38-12.82,15.79-25.29,25.34-36.56,9.61-11.34,21.19-21.01,32.61-31.49-1.68,8.45,4.01,7.55,10.35,7.33-2.18,4.07-3.12,7.6-5.38,9.71-8.54,7.98-10.86,17.67-9.54,28.81,1.33,11.28-2.48,21.85-4.86,32.61-.45,2.04-.56,4.16.04,6.68.76-.88,1.57-1.72,2.29-2.63,9.5-12.02,19.24-23.87,28.36-36.18,3.55-4.78,5.72-10.59,8.49-15.95,3.14-6.09,5.44-12.82,9.52-18.2,13.26-17.48,27.16-34.48,40.82-51.65.76-.95,1.57-1.86,2.36-2.79.14.1.29.2.43.3Z"/>
      <path class="cls-2" d="M885.54,558.13c-19.66,38.93-41.26,75.31-66.93,109.26-10.4,13.75-24.3,22.86-38.72,31-14.67,8.28-30.94-1.29-31.77-18.12-.36-7.37.52-15.41,3.22-22.2,8.07-20.26,20.08-38.05,35.99-53.31,4.53-4.35,7.36-10.84,9.86-16.82,2.22-5.31,4.88-9.58,10.26-11.9,1.05-.45,2.02-1.13,2.96-1.8,5.85-4.12,11.68-8.07,19.5-5.5,1.4.46,3.2-.26,5.66-.53-1.1,1.96-1.78,3.54-2.78,4.89-11.11,14.95-22.16,29.94-33.43,44.77-10.98,14.45-22.8,28.39-28.3,46.14-1.06,3.42-.88,7.23-1.28,10.86,3.79-.23,7.75.19,11.32-.82,6.31-1.79,10.74-6.43,13.92-12.01,9.6-16.86,20.43-32.75,34.69-46.11,1.43-1.34,2.71-2.94,3.69-4.64,11.67-20.18,30.57-33.52,46.81-49.37,1.36-1.32,3.11-2.24,5.32-3.8Z"/>
      <path class="cls-2" d="M630.75,569.55c-8.25,11.28-16.36,22.66-24.78,33.8-8.65,11.45-18.24,22.26-26.21,34.15-5.9,8.8-9.91,18.88-14.66,28.44-.72,1.44-.97,3.14-1.26,4.76-.71,3.9.98,5.61,4.92,5.18,9-.98,15.68-5.52,20.56-13.04,6.65-10.22,12.49-21.16,20.34-30.39,19.82-23.3,37.71-48.42,61.98-67.68,2.55-2.02,5.06-4.09,7.71-6.24.34.79.62,1.15.53,1.3-14.04,24.46-27.64,49.18-42.34,73.23-8.06,13.19-17.74,25.44-27.13,37.78-9.61,12.63-23.1,20.83-36.74,27.99-14.27,7.49-29.3-2.08-31.01-18.14-.98-9.11.66-17.77,4.55-25.99,8.89-18.78,20.02-35.88,35.29-50.35,4.54-4.3,7.09-10.98,9.68-16.94,2.06-4.76,4.29-8.81,9.25-10.91,1.2-.51,2.3-1.3,3.39-2.04,6.03-4.04,11.89-8.39,19.93-5.72,1.39.46,3.19-.28,4.79-.46.4.42.8.84,1.2,1.26Z"/>
      <path class="cls-2" d="M437.43,495.28c-6.84,15.4-11.95,31.38-22.25,45.42-18.36,25.04-37.76,49.39-52.64,76.91-4.28,7.92-11.35,14.49-17.78,21.06-6.77,6.93-14.3,13.13-22.26,19.09,7.04-14.51,13.44-29.38,21.24-43.47,17.96-32.43,36.3-64.67,55.25-96.53,3.49-5.87,10.13-10.32,16.14-14.13,6.54-4.15,14.03-6.79,21.11-10.09.4.58.79,1.16,1.19,1.74Z"/>
      <path class="cls-2" d="M867.03,654.54c-5.59-4.05-10.89-7.89-16.6-12.03,1.52-2.23,2.95-4.31,4.34-6.35,4.16,3.96,8.02,7.52,11.75,11.23,1.96,1.95,3.42,4.18.51,7.15Z"/>
    </g>
    <path class="cls-6" d="M605.5,453.93s74.28,31.65,119.49-22.61c32.3-38.75-10.77-65.67-83.97-66.74-92.12-1.35-71.05-53.83-35.52-60.28,35.52-6.46,58.13-3.23,58.13-3.23"/>
    <polygon class="cls-5" points="661.29 301.48 642.1 286 687.31 305.38 644.25 309.68 661.29 301.48"/>
    <text class="cls-7" transform="translate(380.72 461.84)"><tspan x="0" y="0">Deep</tspan></text>
    <path class="cls-3" d="M623.93,404.05c-1.53,6.87-4.25,11.02-6.87,13.52-.9.86-2.19,1.15-3.38.78-2.23-.71-4.59-1.75-6.71-3.29-2.37-1.72-3.57-3.99-4.13-6.19-.12-.45.13-.92.57-1.08,15.99-6.06,18.3-19.52,18.27-26.91,0-.4.55-.51.7-.14,1.69,4.08,4,12.3,1.55,23.31Z"/>
    <path class="cls-3" d="M374.58,377.13c1.53,6.87,4.25,11.02,6.87,13.52.9.86,2.19,1.15,3.38.78,2.23-.71,4.59-1.75,6.71-3.29,2.37-1.72,3.57-3.99,4.13-6.19.12-.45-.13-.92-.57-1.08-15.99-6.06-18.3-19.52-18.27-26.91,0-.4-.55-.51-.7-.14-1.69,4.08-4,12.3-1.55,23.31Z"/>
  </g>
</svg>