<?xml version="1.0" encoding="UTF-8"?>
<svg xmlns="http://www.w3.org/2000/svg" version="1.1" viewBox="0 0 856.9 264.1">
  <defs>
    <style>
      .cls-1 {
        fill: #fff;
      }
    </style>
  </defs>
  <!-- Generator: Adobe Illustrator 28.7.1, SVG Export Plug-In . SVG Version: 1.2.0 Build 142)  -->
  <g>
    <g id="Layer_1">
      <g id="Layer_3">
        <g>
          <path class="cls-1" d="M47.5,125.7c-4.5,8.1-8.9,14.9-12.1,22.2-2.4,5.3-4,11.2-4.8,17-1.2,9,3.4,16,11.9,18.8,13.2,4.2,26.6,5,39.9.4,14.8-5.1,23.5-18.5,21.8-32.8-1.1-9.2-6.4-12.4-14.9-8.9-3.4,1.4-6.6,3.5-10,5.3,0-7.2,0-14.1,0-20.9-.6-23.6,2.2-46.8,10.2-69.1,10.6-29.7,33.1-46,62.8-53.5,14.3-3.6,28.8-5.8,43.6-4.9,1.3,0,2.6.1,4,.3,23.7,3.6,33,20.2,22.8,42.1-2.8,6-7.3,11.4-11.8,16.2-2.2,2.4-6.3,4.1-9.6,4.2-10.5.6-18.9,4.1-23.9,14.8-2.6-4.4-2.4-8.5-1-12.3,1.9-5.1,4.3-10,6.5-14.9,3.2-7.3,1.4-10.6-6.5-11.4-17-1.8-32.3,2-42.3,16.8-10.5,15.4-11.2,32-2.5,48.7,7.8,14.9,13.7,30.4,10.9,47.4-5.6,33.3-24.9,55.8-56.7,67-19.6,6.9-39.8,8-60,2.4-8.8-2.4-16.5-6.7-21.9-14.3-3.5-4.9-5.1-10.1-2.2-15.8,11.6-22.8,22.5-46,43.2-62.5.6-.5,1.2-1.1,2.8-2.5h0l-.2.2Z"/>
          <path class="cls-1" d="M752,0c0,5.2.2,10.2,0,15.2-.3,4.7-.7,9.5-2,14.1-3.9,14.3-11.5,26.5-22.4,36.7-2.5,2.3-4.8,4.8-7.2,7.2.2.3.5.7.7,1,2.5-1.3,5-2.7,7.6-4,17.3-9.1,33.9-19.2,47.3-33.8,3.5-3.9,8-6.9,12-10.3,3.9-3.2,8.1-5.1,13.4-5.5,4.2-.3,8.6-2.4,12.4-4.6,7.5-4.3,14.7-4.2,22.2-.6,6.5,3.2,13.1,5.5,21,4.3-1.3,1.2-2.6,2.6-4,3.5-14.4,9-28.7,18.1-43.2,27-11.2,6.8-21.8,14.1-29.6,25-2.5,3.5-7,5.8-11,7.9-23.8,12.5-47.7,24.7-71.5,37.1-4.1,2.1-4,4,0,6.3,4.7,2.7,9.7,5,14.6,7.4,2.8,1.3,3.9,3.2,2,5.8-3.8,5.1-8.2,9.8-11.5,15.2-5.3,8.5-12,8.8-20.3,5-4.3-2-9.1-2.8-13.8-4-5.4-1.4-10,.2-12.7,5.2-3.7,7-7.4,14-10.2,21.4s-5.9,14.2-11.6,19.8c-3.5,3.5-6.2,7.7-9.3,11.6-2.8,3.5-5.8,6.2-10.4,7.8-3.3,1.2-5.9,5-8.3,8-4.2,5.5-7.8,11.4-11.8,17-1,1.5-2.8,2.4-4.3,3.5-.4-.3-.7-.6-1.1-.8,4.7-9.2,9.7-18.2,14-27.6,2.6-5.8,4.1-12,6.2-18,1.2-3.5,2.5-7,3.4-10.7.7-2.8,1.9-6.1,1-8.5-1.4-3.8,0-6.1,2-8.8,5-6.4,9.9-12.8,14.5-19.5,1-1.5,1.1-4.1.8-6.1-.7-3.9-2.5-7.6-2.9-11.4-1.2-10-2.9-11.9-13.6-12.4,3.6-5.4,6.7-10.6,10.5-15.2,1.1-1.3,4.3-1.8,6.2-1.4,10.9,2.5,20.8.6,29.4-6.3,3-2.4,5.4-5.7,7.5-8.9,4.8-7.5,9.1-15.2,13.6-22.9,3.7-6.2,7.6-12.3,10.8-18.8,3.2-6.7,7.8-11.5,14.7-14.6,6.2-2.8,12-6.2,17.8-9.6,7.7-4.4,13.9-10.5,18.9-17.9,2.5-3.8,5.6-7.2,8.3-10.6h0v-.2Z"/>
          <path class="cls-1" d="M415.5,159.8c3,4.8,1.3,8.6-.4,12.1-3.9,8.2-7.9,16.3-12,24.4-4.3,8.2-5.5,16.8-4.5,25.9,0,.8.4,1.5,1,3.7,2.2-3.2,3.8-5.4,5.1-7.6,10.5-17.7,21-35.5,31.6-53.2,14-23.4,32.6-42.7,54.1-59.3,1.4-1.1,2.7-2.2,3.6-4.1-1.4.3-2.7.5-4.1.8-9.3,2.2-16.3-.5-20.1-9.2-2.4-5.6-3.1-12-4.3-18.1-.6-3.1-.7-6.3-1-10.1,1-.2,2.9-.6,4.8-.8,14.1-1.7,28-1.1,41.8,2.5,9.4,2.5,18.6,2.3,27.7-1,5.7-2.1,10.5-2.1,16.7,1.3,5.5,3,13.3,1.8,20.1,2.1,2.4.1,4.9-.8,7.3-1.3,7.5-1.4,14.6-.6,21.5,3.3,8.8,5,18,9.2,26.6,13.6-6.4,1.1-14,2.5-21.6,3.5-6.5.8-13.2.6-19.7,1.6-4.9.8-9.5,2.9-14.4,4.3-3.1.9-6.3,1.5-9.6,2-11.2,1.6-22.5,2.8-33.7,4.7-2.3.4-5,2.6-6.3,4.8-10.8,17.3-22.8,33.5-38.5,46.8-6.2,5.3-11.4,11.9-16.5,18.4-12.9,16.1-24.1,33.2-34.1,51.4-10.6,19.4-28.6,31.5-48.8,40.1-1.5.6-3.2,1-4.8,1.3-10.4,2.2-17-3.7-15.6-14.2,1.5-11.1,4.5-22,11.5-30.8,13.1-16.7,23.2-35.2,33.4-53.7.9-1.5,1.9-3,3.2-5.3h0Z"/>
          <path class="cls-1" d="M324.7,30.1c-11.6,26.3-23,52.7-43.2,73.9-1.4,1.4-2.7,3-3.6,4.7-.5,1-.2,2.6-.3,5.2-3.1,2.9-4,7.4-2,13.2,1.9,5.6-1,9.6-6.8,11-2.4.6-4.9,1.3-7.3,1.2-7.9-.5-13,3.5-16.8,9.9-3.5,5.9-7,12-10.8,17.7-3.7,5.5-7.4,11.3-12.1,16-11,11.3-22.7,22.1-34,33.2-1.4,1.3-2.2,3.2-3.8,4,6.2-13.4,11.7-27.1,18.7-40s15.5-25.1,23.5-37.9c-7-.3-14.2-.9-21.4-.8-1.5,0-3.1,2.1-4.3,3.6-14.1,17-27.9,34.3-42.4,50.9-7,8-15.7,14.6-23.6,21.9-.8.7-1.7,1.3-3.6,1.1,16-26.5,32-53.1,47.7-79-1-2.7-1.8-5.6-3.1-8.3-.8-1.7-2-3.4-3.4-4.6-1.3-1.1-3.2-1.6-4.9-2.4.4-.9.7-1.8,1.1-2.7,7.2,1,12.2-.5,11.6-8.2.9-.3,1.2-.6,1.4-.5,10.7,3.5,16.6-1.5,22.1-10.3,7.5-12.1,17.8-21.5,30.4-29.2,7.6-4.6,15.6-8.8,23-13.9,1.1-.8,2.5-1.2,4.6-2.2-3,5.7-6.5,10.2-7.7,15.2-3.9,16-15.1,26.7-25.8,37.9-1.2,1.3-2.4,2.5-3.6,3.8.1.5.3.9.5,1.4,4.4-.5,8.9-1.7,13.3-1.4,7.8.5,11.5-3.5,15.3-9.7,11.1-18,22.6-35.7,34.5-53.1,6.3-9.3,15.4-15.1,26.8-17.3,3.4-.6,6.6-2.7,10.2-4.2h-.2Z"/>
          <path class="cls-1" d="M459.7,33.9c-4.6,10.1-10.2,20-13.8,30.4-15.1,44.1-43.6,80.9-66.5,120.7-5.5,9.6-13.9,16.9-24,21.5-4.5,2-9.8,2.6-14.8,3.3-3.5.5-4.8-1.7-3.5-5,0-.2,0-.3.1-.5,6.1-8.8,5.5-17.9,2.1-27.7-1.6-4.6-.6-10.1-.7-15.2v-4.9c-5.8,5.1-11.6,10.3-17.4,15.5-.7.6-1.2,1.7-1.3,2.6,0,6.8-5,9.6-9.6,13.2-7.6,6.1-14.6,12.9-21.7,19.5-1.9,1.8-3.2,4.1-4.8,6.1-.5-.4-.9-.8-1.4-1.2,1.5-2.7,3-5.4,4.4-8.1,10.6-20.1,20.6-40.6,32-60.3,7.4-12.8,15.8-25.3,25.3-36.6,9.6-11.3,21.2-21,32.6-31.5-1.7,8.5,4,7.5,10.4,7.3-2.2,4.1-3.1,7.6-5.4,9.7-8.5,8-10.9,17.7-9.5,28.8,1.3,11.3-2.5,21.8-4.9,32.6-.5,2-.6,4.2,0,6.7.8-.9,1.6-1.7,2.3-2.6,9.5-12,19.2-23.9,28.4-36.2,3.5-4.8,5.7-10.6,8.5-16,3.1-6.1,5.4-12.8,9.5-18.2,13.3-17.5,27.2-34.5,40.8-51.6.8-1,1.6-1.9,2.4-2.8.1.1.3.2.4.3h0v.2Z"/>
          <path class="cls-1" d="M814,108.2c-19.7,38.9-41.3,75.3-66.9,109.3-10.4,13.8-24.3,22.9-38.7,31-14.7,8.3-30.9-1.3-31.8-18.1-.4-7.4.5-15.4,3.2-22.2,8.1-20.3,20.1-38,36-53.3,4.5-4.3,7.4-10.8,9.9-16.8,2.2-5.3,4.9-9.6,10.3-11.9,1-.5,2-1.1,3-1.8,5.8-4.1,11.7-8.1,19.5-5.5,1.4.5,3.2-.3,5.7-.5-1.1,2-1.8,3.5-2.8,4.9-11.1,15-22.2,29.9-33.4,44.8-11,14.5-22.8,28.4-28.3,46.1-1.1,3.4-.9,7.2-1.3,10.9,3.8-.2,7.8.2,11.3-.8,6.3-1.8,10.7-6.4,13.9-12,9.6-16.9,20.4-32.8,34.7-46.1,1.4-1.3,2.7-2.9,3.7-4.6,11.7-20.2,30.6-33.5,46.8-49.4,1.4-1.3,3.1-2.2,5.3-3.8h0v-.2Z"/>
          <path class="cls-1" d="M559.2,119.6c-8.2,11.3-16.4,22.7-24.8,33.8-8.7,11.5-18.2,22.3-26.2,34.2-5.9,8.8-9.9,18.9-14.7,28.4-.7,1.4-1,3.1-1.3,4.8-.7,3.9,1,5.6,4.9,5.2,9-1,15.7-5.5,20.6-13,6.7-10.2,12.5-21.2,20.3-30.4,19.8-23.3,37.7-48.4,62-67.7,2.5-2,5.1-4.1,7.7-6.2.3.8.6,1.2.5,1.3-14,24.5-27.6,49.2-42.3,73.2-8.1,13.2-17.7,25.4-27.1,37.8-9.6,12.6-23.1,20.8-36.7,28-14.3,7.5-29.3-2.1-31-18.1-1-9.1.7-17.8,4.5-26,8.9-18.8,20-35.9,35.3-50.3,4.5-4.3,7.1-11,9.7-16.9,2.1-4.8,4.3-8.8,9.2-10.9,1.2-.5,2.3-1.3,3.4-2,6-4,11.9-8.4,19.9-5.7,1.4.5,3.2-.3,4.8-.5.4.4.8.8,1.2,1.3h0v-.3Z"/>
          <path class="cls-1" d="M365.9,45.4c-6.8,15.4-12,31.4-22.2,45.4-18.4,25-37.8,49.4-52.6,76.9-4.3,7.9-11.4,14.5-17.8,21.1-6.8,6.9-14.3,13.1-22.3,19.1,7-14.5,13.4-29.4,21.2-43.5,18-32.4,36.3-64.7,55.2-96.5,3.5-5.9,10.1-10.3,16.1-14.1,6.5-4.1,14-6.8,21.1-10.1.4.6.8,1.2,1.2,1.7h0Z"/>
          <path class="cls-1" d="M795.5,204.6c-5.6-4-10.9-7.9-16.6-12,1.5-2.2,3-4.3,4.3-6.3,4.2,4,8,7.5,11.8,11.2,2,2,3.4,4.2.5,7.2h0Z"/>
        </g>
      </g>
    </g>
  </g>
</svg>