<?xml version="1.0" encoding="UTF-8"?>
<svg xmlns="http://www.w3.org/2000/svg" version="1.1" viewBox="0 0 661.5 524.6">
  <defs>
    <style>
      .cls-1, .cls-2 {
        fill: none;
        stroke: #698066;
        stroke-miterlimit: 10;
        stroke-width: 14.8px;
      }

      .cls-3 {
        fill: #e7e4d5;
      }

      .cls-4 {
        fill: #dcbd8d;
      }

      .cls-2 {
        stroke-linecap: round;
      }
    </style>
  </defs>
  <!-- Generator: Adobe Illustrator 28.7.1, SVG Export Plug-In . SVG Version: 1.2.0 Build 142)  -->
  <g>
    <g id="Layer_3">
      <g>
        <line class="cls-2" x1="531.2" y1="58.7" x2="531.2" y2="507.9"/>
        <g>
          <line class="cls-1" x1="481.4" y1="228.2" x2="481.4" y2="136"/>
          <path class="cls-1" d="M426.4,110.6v31.1c0,19.5,7.9,38.3,22.1,52.8l83.8,85.5"/>
          <circle class="cls-1" cx="426.4" cy="97.9" r="12.7"/>
          <circle class="cls-1" cx="481.4" cy="123.3" r="12.7"/>
        </g>
        <g>
          <line class="cls-1" x1="583.1" y1="240.9" x2="583.1" y2="333.1"/>
          <path class="cls-1" d="M532.3,385l83.8-85.5c14.2-14.6,22.1-33.3,22.1-52.8v-31.1"/>
          <circle class="cls-1" cx="638.2" cy="202.8" r="12.7"/>
          <circle class="cls-1" cx="583.1" cy="228.2" r="12.7"/>
        </g>
        <path class="cls-1" d="M608.6,43.3v10c0,19.5-7.9,38.3-22.1,52.8l-55.2,56.3"/>
        <circle class="cls-1" cx="608.6" cy="30.6" r="12.7"/>
        <circle class="cls-1" cx="531.2" cy="46" r="12.7"/>
        <g>
          <path class="cls-4" d="M325.4,441.7c0,30.1-15.2,48.5-45.7,55.2-.3,0-.8.2-1.6.2-2,0-3.7-.7-5.1-2.1s-2.1-3.1-2.1-5.2c0-4,1.8-6.4,5.3-7.2,22.8-5.7,34.2-19.4,34.2-41.2s-3.1-20.4-9.2-27.2c-2.3-2.6-5.1-4.8-8.4-6.8-3.9-2.2-7.3-3.3-10.4-3.3s-6.8,2.5-7.7,7.4c-3.8,21.5-8.2,38.8-13.3,52-3.3,8.3-6.5,14.5-9.6,18.7-5,6.4-10.9,9.6-17.6,9.6s-16.2-4.5-21.6-13.5c-4.7-7.7-7.1-16.3-7.1-25.8,0-18.4,6.1-33.5,18.3-45.6,12.2-12,27.5-18.1,45.8-18.1s30.8,4.4,40.6,13.3c10.3,9.3,15.4,22.5,15.4,39.5h0ZM259.6,412c.1-.7.1-1.4.1-2.1,0-3.7-1.7-5.5-5-5.5s-2.5.2-3.9.7c-9.1,3.2-16.5,9.1-22.2,17.7-5.7,8.6-8.6,18.5-8.6,29.7s1.4,11.5,4.3,16.2c2.9,4.7,6.1,7,9.6,7s8.8-6,13.6-17.9c4-10.1,8-25.4,12-45.9h0Z"/>
          <path class="cls-4" d="M408.9,448.4c0,1.6-.5,2.9-1.6,4s-2.4,1.6-4,1.6h-8.6c-3.1,0-4.6,1-4.6,3.1s.5,2.2,1.5,3.3c2.5,2.7,6.7,6.4,12.7,11.2,1.4,1.1,2.1,2.6,2.1,4.4s-.5,2.9-1.6,4-2.4,1.6-3.8,1.6-4.3-1.9-8.4-5.8c-1.2-1.2-2.3-1.8-3.4-1.8-1.9,0-2.8,1.5-2.8,4.4v21.6c0,1.7-.6,3.1-1.8,4.3-1.2,1.2-2.6,1.8-4.3,1.8s-3.1-.6-4.3-1.8-1.8-2.6-1.8-4.3v-19.7c0-2.9-.9-4.3-2.7-4.3s-2.3.7-3.5,2.2c-3.4,4-7.3,8.4-12,13s-2.5,1.6-4.1,1.6c-4,0-5.9-2-5.9-5.9s.7-3.4,2.1-4.6c7.5-6.5,14.5-13.9,20.9-22.2.9-1.2,1.3-2.3,1.3-3.3,0-2.1-1.5-3.1-4.4-3.1h-11.7c-1.6,0-2.9-.5-4-1.6s-1.6-2.4-1.6-4,.5-2.9,1.6-4,2.4-1.6,4-1.6h13.9c4,0,5.9-2,5.9-5.9v-.2c0-1.8.6-3.3,1.9-4.6,1.3-1.3,2.8-1.9,4.6-1.9s3.3.6,4.6,1.9c1.3,1.3,1.9,2.8,1.9,4.6v.2c0,4,2,5.9,5.9,5.9h10.5c1.6,0,2.9.5,4,1.6,1.1,1.1,1.6,2.4,1.6,4h0ZM474.7,427.7c0,1.7-.6,3.1-1.8,4.3-1.2,1.2-2.7,1.8-4.4,1.8s-1.5-.2-2.2-.4c-16.1-6.6-29.5-13.3-40.1-20.1-1.1-.7-2.1-1-3-1-2.2,0-3.3,1.5-3.3,4.4v12.7c0,1.9-.7,3.5-2,4.7-1.3,1.3-2.9,1.9-4.7,1.9s-3.5-.6-4.8-1.9c-1.3-1.3-2-2.9-2-4.7v-12.4c0-3-1.1-4.4-3.3-4.4s-1.9.3-3,1c-10.3,6.6-23.3,13.3-39.2,20-.7.3-1.5.4-2.4.4-1.7,0-3.1-.6-4.3-1.7s-1.8-2.6-1.8-4.4c0-2.9,1.3-4.8,4-5.8,13.4-5.2,25.1-10.7,34.9-16.4,1.6-.9,2.4-1.9,2.4-3,0-1.7-1.3-2.5-4-2.5h-30.6c-1.6,0-2.9-.6-4.1-1.7-1.1-1.1-1.7-2.5-1.7-4.1s.6-2.9,1.7-4.1c1.1-1.1,2.5-1.7,4.1-1.7h41.3c4,0,5.9-2,5.9-5.9v-.6c0-1.9.7-3.5,2-4.7,1.3-1.3,2.9-1.9,4.8-1.9s3.3.6,4.7,1.9c1.3,1.3,2,2.9,2,4.7v.6c0,4,2,5.9,5.9,5.9h41.9c1.6,0,2.9.6,4.1,1.7,1.1,1.1,1.7,2.5,1.7,4.1s-.6,2.9-1.7,4.1-2.5,1.7-4.1,1.7h-30.8c-2.6,0-3.8.8-3.8,2.5s.7,2.1,2.2,3c9.6,5.5,21.4,11,35.5,16.3,2.6,1,3.8,2.9,3.8,5.8h0ZM481.6,489c0,1.7-.6,3.1-1.8,4.4s-2.7,1.8-4.4,1.8-3.1-.6-4.3-1.8c-4.7-4.6-9.3-9.7-13.8-15.1-1.2-1.5-2.4-2.2-3.5-2.2-1.8,0-2.7,1.5-2.7,4.4v19.7c0,1.7-.6,3.1-1.8,4.3s-2.7,1.8-4.4,1.8-3.1-.6-4.3-1.8-1.8-2.6-1.8-4.3v-19.8c0-3-.8-4.4-2.5-4.4s-2.4.8-3.7,2.4c-4.5,5.6-9.7,11.2-15.5,16.9-1.2,1.2-2.6,1.8-4.3,1.8s-2.9-.6-4.1-1.8c-1.1-1.2-1.7-2.6-1.7-4.3s.7-3.3,2.1-4.4c9.8-8.5,17.9-17.2,24.4-26.1.8-1.1,1.2-2.1,1.2-3.1,0-2.2-1.5-3.3-4.6-3.3h-9.9c-1.6,0-2.9-.5-4-1.6s-1.6-2.4-1.6-4,.5-2.9,1.6-4,2.4-1.6,4-1.6h12.1c4,0,5.9-2,5.9-5.9v-.2c0-1.8.7-3.3,2-4.6,1.3-1.3,2.9-1.9,4.7-1.9s3.3.6,4.6,1.9c1.3,1.3,1.9,2.8,1.9,4.6v.2c0,4,2,5.9,5.9,5.9h16.3c1.6,0,2.9.5,4,1.6,1.1,1.1,1.6,2.4,1.6,4s-.5,2.9-1.6,4-2.4,1.6-4,1.6h-14.1c-3,0-4.4,1-4.4,3.1s.4,2.2,1.3,3.3c6.2,7.9,13.9,15.8,23.1,23.8,1.4,1.2,2.1,2.8,2.1,4.7h0Z"/>
        </g>
        <g>
          <path class="cls-3" d="M111.7,321.1c0,11.3-5.7,17-17,17H17.8c-2,0-3.7-.7-5.1-2.2-1.4-1.4-2.1-3.2-2.1-5.2s.7-3.8,2.1-5.2c1.4-1.4,3.1-2.2,5.1-2.2h66.3c4.9,0,8.1-.7,9.6-2.2s2.2-4.7,2.2-9.6v-38.8c0-4.9-.7-8.1-2.2-9.6s-4.7-2.2-9.6-2.2H18.9c-2.1,0-3.8-.7-5.2-2.1-1.4-1.4-2.1-3.1-2.1-5.1s.7-3.7,2.2-5.2c1.5-1.5,3.2-2.2,5.2-2.2h75.8c11.4,0,17,5.7,17,17v57.9h0Z"/>
          <path class="cls-3" d="M272,287.4c0,2.2-.7,4-2.1,5.5s-3.2,2.2-5.4,2.2h-109.1c-2.2,0-4-.7-5.4-2.2s-2.1-3.3-2.1-5.5.7-4,2.1-5.5,3.2-2.2,5.4-2.2h109.1c2.2,0,4,.7,5.4,2.2s2.1,3.3,2.1,5.5Z"/>
          <path class="cls-3" d="M406.6,302.3c0,2.2-.7,4-2.2,5.5s-3.3,2.2-5.5,2.2-2.2-.2-3.4-.7c-.4-.2-8-3.6-22.7-10.2-9.5-4.3-17.7-7.7-24.7-10.1-1.1-.4-2.1-.6-3.1-.6-3.6,0-5.5,2.2-5.5,6.7v51.5c0,2.2-.8,4-2.3,5.5-1.5,1.5-3.3,2.3-5.4,2.3s-4-.8-5.6-2.3c-1.6-1.5-2.4-3.4-2.4-5.5v-109.1c0-2.2.8-4,2.4-5.5s3.5-2.3,5.6-2.3,3.9.8,5.4,2.3,2.3,3.4,2.3,5.5v23.1c0,6.8,3.2,11.4,9.6,13.6,20,7.2,37.7,14.3,53,21.2,3,1.3,4.4,3.6,4.4,7h0ZM396.9,258.4c0,1.6-.6,2.9-1.7,4.1s-2.5,1.7-4.1,1.7c-2.4,0-4.1-.9-5.2-2.7-2.9-4.5-5.9-8.4-9.2-11.7-1.1-1.1-1.6-2.4-1.6-4,0-4,1.9-5.9,5.8-5.9s3.2.7,4.4,2.2c4.2,4.6,7.6,9,10.4,13,.8,1.2,1.2,2.3,1.2,3.3ZM415,249.9c0,1.6-.6,2.9-1.7,4.1-1.1,1.1-2.5,1.7-4.1,1.7-2.3,0-4-.9-5.2-2.7-3.3-4.8-6.3-8.8-9.2-12-1.1-1.2-1.6-2.4-1.6-3.7,0-4,2-5.9,5.9-5.9s2.9.7,4.3,2.1c3.5,3.5,7,7.9,10.5,13.2.7,1.4,1,2.5,1,3.3h0Z"/>
        </g>
      </g>
    </g>
  </g>
</svg>